<svg xmlns="http://www.w3.org/2000/svg" xmlns:xlink="http://www.w3.org/1999/xlink" version="1.1" x="0px" y="0px" viewBox="0 0 100 125" enable-background="new 0 0 100 100" xml:space="preserve"><path d="M29.046,29.227c-12.789,0-23.156,10.367-23.156,23.156c0,12.788,10.367,23.156,23.156,23.156s23.156-10.367,23.156-23.156  C52.202,39.594,41.835,29.227,29.046,29.227z M29.046,63.279c-6.018,0-10.897-4.879-10.897-10.897  c0-6.018,4.879-10.897,10.897-10.897s10.897,4.879,10.897,10.897C39.943,58.401,35.064,63.279,29.046,63.279z"/><circle cx="29.046" cy="52.383" r="4.447"/><path d="M66.937,29.227c-12.789,0-23.156,10.367-23.156,23.156c0,12.788,10.367,23.156,23.156,23.156s23.156-10.367,23.156-23.156  C90.093,39.594,79.726,29.227,66.937,29.227z M66.937,63.279c-6.018,0-10.897-4.879-10.897-10.897  c0-6.018,4.879-10.897,10.897-10.897s10.897,4.879,10.897,10.897C77.834,58.401,72.956,63.279,66.937,63.279z"/><circle cx="66.937" cy="52.383" r="4.447"/><polygon points="12.003,40.486 4.891,23.153 22.223,30.265 "/><polygon points="75.099,31.265 92.431,24.153 85.319,41.486 "/><polygon points="54.836,63.231 47.609,80.515 40.382,63.231 "/><text x="0" y="115" fill="#000000" font-size="5px" font-weight="bold" font-family="'Helvetica Neue', Helvetica, Arial-Unicode, Arial, Sans-serif">Created by Akheela</text><text x="0" y="120" fill="#000000" font-size="5px" font-weight="bold" font-family="'Helvetica Neue', Helvetica, Arial-Unicode, Arial, Sans-serif">from the Noun Project</text></svg>